<svg width="232" height="64" viewBox="0 0 232 64" fill="none" xmlns="http://www.w3.org/2000/svg">
<rect y="8" width="48" height="48" rx="10" fill="white"/>
<path d="M38.831 23.1182L38.823 17.9052L29.203 11.6172V15.6392L35.548 19.8172L35.553 23.0192L32.605 25.0152L30.594 23.5482V21.0632L27.317 18.8212V23.3442L22.122 26.5322L22.113 34.9522L18.44 37.0202L16.554 35.5432V33.1052L18.786 31.5762V31.5562V27.7832L14.769 30.4712L11.698 28.4732L8.893 30.3102L13.277 33.3112V35.1542L10.117 37.2912L6.894 35.1092V27.8482L11.679 24.6082L11.684 21.4922L17.82 25.4452L22.978 22.0112L19.834 20.1772L17.776 21.5642L13.294 18.6002L18.349 15.6542L22.727 18.2202V14.3932L18.354 11.8282L8.411 17.6252L8.404 22.8402L3.617 26.0822V36.8742L8.404 40.1162L8.411 45.3322L18.032 51.6172V47.5982L11.686 43.4202L11.681 40.2182L14.629 38.2222L16.64 39.6892V42.1742L19.917 44.4162V39.8922L25.186 36.7052L25.245 28.2852L28.795 26.2172L30.68 27.6942V30.1312L28.448 31.6612V31.6802V35.4542L32.465 32.7652L35.536 34.7642L38.341 32.9272L33.958 29.9232V28.0832L37.117 25.9462L40.34 28.1282V35.3892L35.556 38.6292L35.551 41.7442L29.414 37.7902L24.256 41.2012L27.401 43.0332L29.459 41.6722L33.941 44.6362L28.886 47.5832L24.507 45.0162V48.8422L28.881 51.4062L38.823 45.6122L38.831 40.3962L43.617 37.1542V26.3612L38.831 23.1182Z" fill="#040744"/>
<path d="M74.08 0.895996H83.36V48H74.08V0.895996ZM97.4055 48.32C96.1895 48.32 95.0802 48.032 94.0775 47.456C93.0962 46.8587 92.3175 46.0267 91.7415 44.96C91.1655 43.872 90.8775 42.624 90.8775 41.216C90.8775 39.744 91.1762 38.4853 91.7735 37.44C92.3922 36.3947 93.2242 35.5947 94.2695 35.04C95.3148 34.4853 96.4882 34.208 97.7895 34.208C98.8348 34.208 99.8268 34.432 100.766 34.88C101.726 35.328 102.472 35.9467 103.006 36.736L102.878 37.792V23.232H105.822V48H102.846V44.704L103.166 45.536C102.547 46.3467 101.747 47.0187 100.766 47.552C99.7842 48.064 98.6642 48.32 97.4055 48.32ZM98.3335 45.792C99.1228 45.792 99.8268 45.6533 100.446 45.376C101.064 45.0773 101.576 44.672 101.982 44.16C102.387 43.648 102.675 43.04 102.846 42.336V39.84C102.675 39.2 102.366 38.6453 101.918 38.176C101.491 37.6853 100.968 37.3013 100.35 37.024C99.7522 36.7253 99.0802 36.576 98.3335 36.576C97.5228 36.576 96.7762 36.7787 96.0935 37.184C95.4322 37.568 94.8988 38.1013 94.4935 38.784C94.0882 39.4667 93.8855 40.256 93.8855 41.152C93.8855 42.0267 94.0882 42.816 94.4935 43.52C94.8988 44.2027 95.4428 44.7573 96.1255 45.184C96.8082 45.5893 97.5442 45.792 98.3335 45.792ZM117.142 48.32C115.628 48.32 114.326 48.0213 113.238 47.424C112.15 46.8053 111.308 45.9733 110.71 44.928C110.134 43.8613 109.846 42.6453 109.846 41.28C109.846 39.9787 110.177 38.7947 110.838 37.728C111.5 36.6613 112.385 35.808 113.494 35.168C114.604 34.528 115.841 34.208 117.206 34.208C118.956 34.208 120.406 34.72 121.558 35.744C122.71 36.768 123.489 38.176 123.894 39.968L112.982 43.808L112.278 42.048L121.238 38.784L120.598 39.2C120.342 38.496 119.916 37.888 119.318 37.376C118.721 36.8427 117.942 36.576 116.982 36.576C116.172 36.576 115.446 36.7787 114.806 37.184C114.166 37.568 113.665 38.1013 113.302 38.784C112.94 39.4667 112.758 40.2453 112.758 41.12C112.758 42.0373 112.95 42.848 113.334 43.552C113.718 44.2347 114.241 44.7787 114.902 45.184C115.585 45.568 116.353 45.76 117.206 45.76C117.782 45.76 118.337 45.6533 118.87 45.44C119.425 45.2267 119.937 44.9493 120.406 44.608L121.782 46.816C121.121 47.264 120.374 47.6267 119.542 47.904C118.732 48.1813 117.932 48.32 117.142 48.32ZM133.127 48.32C131.89 48.32 130.759 48.0533 129.735 47.52C128.733 46.9867 127.933 46.208 127.335 45.184C126.759 44.1387 126.471 42.8693 126.471 41.376C126.471 39.904 126.781 38.6347 127.399 37.568C128.018 36.48 128.839 35.648 129.863 35.072C130.909 34.496 132.05 34.208 133.287 34.208C134.525 34.208 135.57 34.496 136.423 35.072C137.277 35.6267 137.927 36.288 138.375 37.056L138.183 37.568L138.471 34.752H141.223V48H138.247V44.544L138.567 45.312C138.482 45.5253 138.29 45.8027 137.991 46.144C137.714 46.464 137.33 46.7947 136.839 47.136C136.37 47.4773 135.826 47.7653 135.207 48C134.589 48.2133 133.895 48.32 133.127 48.32ZM133.927 45.856C134.674 45.856 135.346 45.7173 135.943 45.44C136.541 45.1627 137.031 44.7787 137.415 44.288C137.821 43.776 138.098 43.168 138.247 42.464V39.872C138.077 39.232 137.778 38.6773 137.351 38.208C136.925 37.7173 136.413 37.344 135.815 37.088C135.218 36.8107 134.557 36.672 133.831 36.672C133.042 36.672 132.317 36.864 131.655 37.248C130.994 37.632 130.461 38.1653 130.055 38.848C129.671 39.5307 129.479 40.3307 129.479 41.248C129.479 42.1013 129.682 42.88 130.087 43.584C130.493 44.288 131.037 44.8427 131.719 45.248C132.402 45.6533 133.138 45.856 133.927 45.856ZM189.477 0.895996V48H180.197V28.864H159.141V48H149.861V0.895996H159.141V19.904H180.197V0.895996H189.477ZM202.315 48.512C201.121 48.512 200.129 48.1493 199.339 47.424C198.571 46.6773 198.166 45.7173 198.123 44.544V34.752H201.099V43.488C201.142 44.2133 201.345 44.8 201.707 45.248C202.091 45.696 202.689 45.9307 203.499 45.952C204.246 45.952 204.907 45.7387 205.483 45.312C206.081 44.864 206.561 44.2667 206.923 43.52C207.286 42.752 207.467 41.888 207.467 40.928V34.752H210.443V48H207.723L207.467 44.736L207.627 45.312C207.371 45.9307 206.977 46.4853 206.443 46.976C205.931 47.4453 205.323 47.8187 204.619 48.096C203.915 48.3733 203.147 48.512 202.315 48.512ZM223.656 48.32C222.44 48.32 221.363 48.0533 220.424 47.52C219.507 46.9867 218.771 46.3147 218.216 45.504L218.568 44.576V48H215.592V23.232H218.536V37.792L218.44 36.672C218.973 35.9467 219.731 35.36 220.712 34.912C221.715 34.4427 222.824 34.208 224.04 34.208C225.235 34.208 226.323 34.496 227.304 35.072C228.285 35.648 229.064 36.4587 229.64 37.504C230.237 38.528 230.536 39.7547 230.536 41.184C230.536 42.6773 230.216 43.9573 229.576 45.024C228.957 46.0907 228.125 46.912 227.08 47.488C226.035 48.0427 224.893 48.32 223.656 48.32ZM223.048 45.792C223.901 45.792 224.669 45.5893 225.352 45.184C226.035 44.7787 226.568 44.2347 226.952 43.552C227.336 42.848 227.528 42.048 227.528 41.152C227.528 40.2987 227.325 39.5307 226.92 38.848C226.536 38.144 226.003 37.5893 225.32 37.184C224.659 36.7787 223.901 36.576 223.048 36.576C222.323 36.576 221.651 36.7147 221.032 36.992C220.413 37.2693 219.891 37.6533 219.464 38.144C219.037 38.6133 218.739 39.168 218.568 39.808V42.464C218.739 43.104 219.027 43.68 219.432 44.192C219.837 44.6827 220.349 45.0773 220.968 45.376C221.587 45.6533 222.28 45.792 223.048 45.792Z" fill="black"/>
</svg>
