<svg width="353" height="359" viewBox="0 0 353 359" fill="none" xmlns="http://www.w3.org/2000/svg">
<path d="M352.338 4.78345V337.224C352.338 340.142 349.992 342.41 347.073 342.41H168.436C165.753 342.41 163.732 340.333 163.732 337.65V4.3559C163.732 2.03267 165.439 0 167.762 0H210.176C211.5 0 212.703 0.864567 213.196 2.11063L215.138 6.89289C215.632 8.12832 216.833 8.98107 218.158 8.98107H298.012C299.337 8.98107 300.539 8.16139 301.032 6.92714L302.974 2.12243C303.468 0.876372 304.669 0.00118045 305.994 0.00118045H347.734C350.295 0.00118045 352.338 2.22401 352.338 4.78345Z" fill="#263238"/>
<path d="M352.339 22.1738H163.733V318.835H352.339V22.1738Z" fill="#FEB546" fill-opacity="0.87"/>
<path opacity="0.7" d="M352.339 22.1738H163.733V318.835H352.339V22.1738Z" fill="white"/>
<path opacity="0.6" d="M186.017 14.3027H188.458V11.0488H186.017V14.3027Z" fill="white"/>
<path opacity="0.6" d="M182.041 14.3008H184.481V9.96142H182.041V14.3008Z" fill="white"/>
<path opacity="0.6" d="M178.062 14.3008H180.502V8.87599H178.062V14.3008Z" fill="white"/>
<path opacity="0.6" d="M174.085 14.3008H176.525V7.79057H174.085V14.3008Z" fill="white"/>
<path opacity="0.6" d="M330.487 9.86328H329.04V13.1172H330.487V9.86328Z" fill="white"/>
<path opacity="0.6" d="M331.481 14.3066L343.006 14.3066V8.67871L331.481 8.67871V14.3066Z" fill="white"/>
<path d="M231.225 62.0856C231.225 67.1147 229.923 71.8309 227.632 75.9281C227.463 76.2316 227.295 76.5233 227.116 76.8151C225.421 79.6214 223.266 82.1029 220.729 84.1568C220.684 84.2017 220.639 84.2347 220.582 84.2808C218.202 86.2001 215.496 87.7391 212.578 88.8162C212.555 88.8162 212.544 88.8268 212.533 88.8268C209.48 89.9501 206.19 90.556 202.755 90.556C201.677 90.556 200.621 90.4993 199.577 90.3765C197.781 90.1851 196.041 89.8154 194.357 89.2981C190.17 88.0072 186.386 85.7725 183.276 82.8316C183.264 82.8316 183.253 82.821 183.243 82.8092C177.731 77.623 174.284 70.2576 174.284 62.0856C174.284 46.3569 187.027 33.6152 202.755 33.6152C218.473 33.6152 231.225 46.3569 231.225 62.0856Z" fill="#FEB546" fill-opacity="0.87"/>
<path d="M227.633 75.9288C227.464 76.2323 227.296 76.524 227.117 76.8158C220.505 76.5914 213.69 77.6355 207.784 79.0055C207.066 79.1744 206.347 79.354 205.662 79.5217C205.179 79.6457 204.697 79.7803 204.226 79.9032C202.417 80.3862 200.734 80.8906 199.207 81.3736C198.971 81.4528 198.747 81.5201 198.534 81.5981C198.365 81.6429 198.208 81.6984 198.051 81.7551H198.04C196.278 82.3386 194.784 82.8784 193.629 83.3154C191.922 83.9555 190.945 84.3819 190.945 84.3819C190.945 84.3819 190.305 83.6071 189.408 82.1142C189.385 82.0693 189.363 82.0362 189.33 81.9914C189.33 81.9914 189.33 81.9914 189.33 81.9795C186.77 77.6792 182.28 67.7662 184.379 53.6769C186.725 37.9151 199.815 38.9143 204.463 39.7895C205.485 39.969 206.102 40.1604 206.102 40.1604C206.102 40.1604 220.742 43.6186 221.281 52.7344C221.348 53.8682 221.505 55.0918 221.73 56.3722C223.007 63.8261 226.487 73.0327 227.633 75.9288Z" fill="#263238"/>
<path d="M212.579 88.8168C212.556 88.8168 212.544 88.8274 212.534 88.8274C209.481 89.9507 206.191 90.5566 202.756 90.5566C201.678 90.5566 200.622 90.4999 199.578 90.3771C197.782 90.1857 196.042 89.816 194.358 89.2987L193.448 81.8672L193.01 78.3086L212.489 81.07L212.511 82.7318L212.568 87.6263V87.9853L212.579 88.8168Z" fill="#FEB546" fill-opacity="0.87"/>
<path d="M220.583 84.2807C218.203 86.2 215.497 87.7389 212.579 88.8161C212.556 88.8161 212.544 88.8267 212.534 88.8267C209.481 89.9499 206.191 90.5559 202.755 90.5559C201.678 90.5559 200.622 90.4992 199.578 90.3763C197.782 90.185 196.042 89.8153 194.358 89.298C190.171 88.007 186.387 85.7724 183.277 82.8315C183.265 82.8315 183.254 82.8209 183.244 82.809C184.141 82.6744 185.051 82.5622 185.96 82.45L186.185 82.4275C187.251 82.3047 188.328 82.2031 189.407 82.1134C190.675 82.0118 191.944 81.9338 193.224 81.8772C193.303 81.8772 193.369 81.8653 193.448 81.8653C193.954 81.8429 194.481 81.8323 194.998 81.8087C195.626 81.7862 196.244 81.7756 196.862 81.7638C197.243 81.7519 197.647 81.752 198.04 81.752H199.028C201.43 81.7638 203.822 81.8417 206.212 82.0106C207.032 82.0673 207.852 82.1346 208.66 82.2126C209.086 82.2575 209.512 82.2917 209.939 82.3366C210.557 82.4264 211.185 82.5161 211.813 82.6283C211.948 82.6401 212.083 82.6626 212.217 82.685L212.509 82.7299H212.531C213.273 82.8539 214.002 82.9886 214.721 83.1114C215.07 83.1681 215.406 83.246 215.755 83.3027C215.967 83.3476 216.181 83.3807 216.405 83.4267C216.63 83.4716 216.877 83.5165 217.102 83.5614C217.506 83.6393 217.877 83.7185 218.258 83.7976C218.54 83.8543 218.82 83.9098 219.089 83.9665C219.617 84.0787 220.122 84.1909 220.583 84.2807Z" fill="#263238"/>
<path d="M207.591 89.1162C199.476 87.732 197.167 84.1402 197.167 84.1402C200.632 81.1379 200.218 76.4737 199.486 73.5446C199.091 71.9242 198.591 70.834 198.591 70.834L208.336 73.0781C208.013 74.6891 207.842 76.0497 207.785 77.1989C207.711 78.4603 207.783 79.4607 207.936 80.2485C208.481 83.2119 210.153 83.3218 210.153 83.3218C211.745 86.6158 207.591 89.1162 207.591 89.1162Z" fill="#E4897B"/>
<path opacity="0.2" d="M207.786 77.1977C207.713 78.4592 207.785 79.4595 207.937 80.2473C204.059 79.5729 201.232 76.3308 199.487 73.5446C199.091 71.9241 198.591 70.834 198.591 70.834L208.337 73.0781C208.013 74.6879 207.844 76.0485 207.786 77.1977Z" fill="black"/>
<path d="M206.464 45.1635C215.687 45.5591 218.444 50.6249 218.711 60.1587C219.045 72.0724 216.05 80.398 204.626 77.3661C189.113 73.2476 191.147 44.5056 206.464 45.1635Z" fill="#E4897B"/>
<path d="M212.771 59.3867C212.771 59.3867 213.946 61.8505 215.29 63.3269C215.29 63.3269 214.446 64.5469 212.814 64.2658L212.771 59.3867Z" fill="#DE5753"/>
<path d="M207.339 52.0155C207.339 52.0155 204.762 51.5678 203.28 53.2379" stroke="#263238" stroke-width="0.7247" stroke-miterlimit="10" stroke-linecap="round" stroke-linejoin="round"/>
<path d="M214.06 51.914C214.06 51.914 215.714 51.3813 217.703 52.8305" stroke="#263238" stroke-width="0.7247" stroke-miterlimit="10" stroke-linecap="round" stroke-linejoin="round"/>
<path d="M195.716 60.2765C195.716 60.2765 200.353 52.884 199.952 47.0056C199.952 47.0056 218.549 40.3242 218.655 58.9135C218.655 58.9135 221.148 42.5175 205.308 41.4698C189.494 40.4234 188.541 63.6202 196.432 70.8827C196.432 70.8827 192.845 64.9005 195.716 60.2765Z" fill="#263238"/>
<path d="M197.14 62.2872C197.142 60.7991 195.718 58.2207 192.943 58.4038C190.072 58.5928 188.457 64.4014 195.506 66.1175C196.517 66.3632 197.135 65.3912 197.14 62.2872Z" fill="#E4897B"/>
<path d="M212.996 66.9854C212.255 67.9728 211.313 69.9193 211.313 69.9193C211.121 69.8661 210.929 69.8118 210.742 69.748C208.16 68.9555 207.224 67.7354 206.969 66.6217C206.832 66.0122 206.907 65.4299 207.027 64.974C207.161 64.4449 207.377 64.0977 207.377 64.0977C208.494 65.3354 210.844 66.2602 212.12 66.7008C212.653 66.8921 212.996 66.9854 212.996 66.9854Z" fill="#263238"/>
<path d="M212.121 66.7L211.603 67.5516C209.173 66.7992 207.563 65.9429 207.028 64.9721C207.162 64.443 207.378 64.0957 207.378 64.0957C208.495 65.3359 210.844 66.2595 212.121 66.7Z" fill="white"/>
<path d="M210.742 69.7475C208.16 68.9549 207.224 67.7349 206.969 66.6211C207.839 66.9246 208.853 67.3876 209.662 68.0691C210.281 68.5876 210.587 69.1876 210.742 69.7475Z" fill="#DE5753"/>
<path d="M206.243 45.8513C206.243 45.8513 201.875 60.8678 192.328 60.2631C182.781 59.6584 198.352 41.0761 198.352 41.0761C198.352 41.0761 214.199 35.8616 221.537 44.473C228.875 53.0844 218.655 58.9119 218.655 58.9119C218.655 58.9119 219.747 47.1848 206.243 45.8513Z" fill="#263238"/>
<path d="M206.197 44.7695C206.197 44.7695 206.879 55.1797 199.163 58.4915" stroke="#263238" stroke-width="0.5" stroke-miterlimit="10" stroke-linecap="round" stroke-linejoin="round"/>
<path d="M207.332 58.8574C207.417 59.5708 207.1 60.1944 206.624 60.2511C206.148 60.3078 205.695 59.7751 205.61 59.0617C205.524 58.3483 205.841 57.7247 206.317 57.668C206.793 57.6125 207.247 58.144 207.332 58.8574Z" fill="#263238"/>
<path d="M206.124 57.7281L207.602 56.9355C207.602 56.9355 206.985 58.3316 206.124 57.7281Z" fill="#263238"/>
<path d="M216.182 57.6584C216.267 58.3717 215.95 58.9953 215.474 59.052C214.998 59.1087 214.545 58.5761 214.46 57.8627C214.375 57.1493 214.691 56.5257 215.167 56.469C215.642 56.4123 216.097 56.945 216.182 57.6584Z" fill="#263238"/>
<path d="M214.972 56.5269L216.451 55.7344C216.451 55.7344 215.834 57.1316 214.972 56.5269Z" fill="#263238"/>
<path d="M220.729 84.1589C220.684 84.2038 220.639 84.2368 220.582 84.2829C218.202 86.2022 215.496 87.7412 212.578 88.8183C212.555 88.8183 212.544 88.8289 212.533 88.8289L212.567 87.9868L212.578 87.6608L212.567 87.6266L211.018 84.4943L211.815 82.6306L212.488 81.0703L213.173 82.5526L220.729 84.1589Z" fill="#FEB546" fill-opacity="0.87"/>
<path opacity="0.6" d="M220.729 84.1589C220.684 84.2038 220.639 84.2368 220.582 84.2829C218.202 86.2022 215.496 87.7412 212.578 88.8183C212.555 88.8183 212.544 88.8289 212.533 88.8289L212.567 87.9868L212.578 87.6608L212.567 87.6266L211.018 84.4943L211.815 82.6306L212.488 81.0703L213.173 82.5526L220.729 84.1589Z" fill="white"/>
<path d="M202.98 84.2464L199.746 88.2987L199.577 90.3751C197.781 90.1838 196.041 89.8141 194.357 89.2968C190.17 88.0058 186.386 85.7712 183.276 82.8302L185.959 82.4488L186.184 82.4263L191.865 81.6184L193.009 78.3066L198.791 81.7531L202.967 84.2452H202.98V84.2464Z" fill="#FEB546" fill-opacity="0.87"/>
<path opacity="0.6" d="M202.968 84.2464L199.746 88.2987L199.577 90.3751C197.781 90.1838 196.041 89.8141 194.357 89.2968C190.17 88.0058 186.386 85.7712 183.276 82.8302L186.184 82.4263L191.865 81.6291V81.6184L193.009 78.3066L198.791 81.7531L202.968 84.2464Z" fill="white"/>
<path d="M233.172 86.1569C233.172 90.4289 229.709 93.8919 225.437 93.8919C221.165 93.8919 217.702 90.4289 217.702 86.1569C217.702 81.8849 221.165 78.4219 225.437 78.4219C229.709 78.4219 233.172 81.8849 233.172 86.1569Z" fill="white"/>
<path d="M232.04 86.157C232.04 89.8031 229.083 92.7594 225.437 92.7594C221.791 92.7594 218.835 89.8031 218.835 86.157C218.835 82.511 221.791 79.5547 225.437 79.5547C229.083 79.5547 232.04 82.511 232.04 86.157Z" fill="#263238"/>
<path d="M222.051 86.0532L225.086 88.726L228.824 83.5918" stroke="white" stroke-miterlimit="10"/>
<path d="M248.71 51.6324H310.78C311.511 51.6324 312.104 51.0395 312.104 50.3084C312.104 49.5773 311.511 48.9844 310.78 48.9844H248.71C247.979 48.9844 247.386 49.5773 247.386 50.3084C247.385 51.0395 247.979 51.6324 248.71 51.6324Z" fill="#263238"/>
<path d="M324.895 56.5586H248.363C247.823 56.5586 247.386 56.9956 247.386 57.5354C247.386 58.0751 247.823 58.5121 248.363 58.5121H324.895C325.435 58.5121 325.872 58.0751 325.872 57.5354C325.872 56.9956 325.434 56.5586 324.895 56.5586Z" fill="#263238"/>
<path d="M302.442 62.1445H248.362C247.822 62.1445 247.385 62.5815 247.385 63.1213C247.385 63.6611 247.822 64.0981 248.362 64.0981H302.442C302.981 64.0981 303.418 63.6611 303.418 63.1213C303.42 62.5815 302.981 62.1445 302.442 62.1445Z" fill="#263238"/>
<path d="M350.087 98.2832H165.982V282.388H350.087V98.2832Z" fill="#FEB546" fill-opacity="0.87"/>
<path d="M344.168 302.311L338.976 297.836L333.782 302.311V289.998H344.168V302.311Z" fill="#FEB546" fill-opacity="0.87"/>
<path d="M325.434 289.998H317.617C316.547 289.998 315.679 290.866 315.679 291.936V297.282C315.679 298.352 316.547 299.22 317.617 299.22H320.273V302.311L322.289 299.22H325.434C326.504 299.22 327.372 298.352 327.372 297.282V291.936C327.372 290.866 326.504 289.998 325.434 289.998Z" fill="#FEB546" fill-opacity="0.87"/>
<path d="M309.763 291.471C308.321 289.098 305.534 289.991 304.087 291.819C302.66 289.974 299.885 289.049 298.415 291.406C295.937 295.378 300.975 299.099 303.356 300.559C303.625 300.727 303.848 300.865 304.035 300.974C304.223 300.867 304.447 300.732 304.719 300.567C307.115 299.135 312.194 295.471 309.763 291.471Z" fill="#FEB546" fill-opacity="0.87"/>
<g opacity="0.3">
<path opacity="0.7" d="M312.503 113.787H319.466L315.985 122.82L312.503 113.787Z" fill="white"/>
<path opacity="0.7" d="M334.956 158.756L337.063 165.391L327.4 164.809L334.956 158.756Z" fill="white"/>
<path d="M332.231 129.633L328.923 137.748L338.975 141.25V134.683L332.231 129.633Z" fill="white"/>
<path d="M201.914 111.607H207.03L201.914 118.304V111.607Z" fill="white"/>
<path d="M182.684 144.625L188.477 143.301L190.085 148.274L183.415 150.594L182.684 144.625Z" fill="white"/>
<path d="M241.248 118.304C242.496 118.304 243.507 117.293 243.507 116.045C243.507 114.798 242.496 113.787 241.248 113.787C240.001 113.787 238.99 114.798 238.99 116.045C238.99 117.293 240.001 118.304 241.248 118.304Z" fill="white"/>
<path d="M208.379 267.31C208.379 269.781 206.376 271.784 203.905 271.784C201.434 271.784 199.431 269.781 199.431 267.31C199.431 264.839 201.434 262.836 203.905 262.836C206.376 262.835 208.379 264.839 208.379 267.31Z" fill="white"/>
<path d="M186.814 228.418L188.477 231.222L180.474 234.648L178.651 232.779L186.814 228.418Z" fill="white"/>
<path d="M238.99 274.25L237.433 270.289H243.507L238.99 274.25Z" fill="white"/>
<path d="M303.607 270.289L304.076 265.885L312.412 268.088V274.52L303.607 270.289Z" fill="white"/>
<path d="M321.526 247.574H328.973L325.25 251.986L321.526 247.574Z" fill="white"/>
<path d="M333.782 202.252L332.231 211.597L333.949 213.155L335.555 202.252H333.782Z" fill="white"/>
<path d="M173.872 174.84L180.474 179.641L175.755 183.115L173.872 174.84Z" fill="white"/>
<path d="M203.165 136.881C203.573 136.881 203.905 136.55 203.905 136.142C203.905 135.733 203.573 135.402 203.165 135.402C202.757 135.402 202.426 135.733 202.426 136.142C202.426 136.55 202.757 136.881 203.165 136.881Z" fill="white"/>
<path d="M298.787 128.019C299.362 128.019 299.829 127.553 299.829 126.977C299.829 126.402 299.362 125.936 298.787 125.936C298.212 125.936 297.745 126.402 297.745 126.977C297.745 127.553 298.212 128.019 298.787 128.019Z" fill="white"/>
<path d="M270.893 269.445C270.893 269.911 270.515 270.289 270.048 270.289C269.582 270.289 269.205 269.911 269.205 269.445C269.205 268.978 269.583 268.602 270.048 268.602C270.515 268.602 270.893 268.98 270.893 269.445Z" fill="white"/>
<path d="M280.73 107.557L289.042 106.311V110.361L280.73 111.607V107.557Z" fill="white"/>
<path d="M335.555 111.607H338.276L336.915 114.956L335.555 111.607Z" fill="white"/>
<path d="M178.651 116.045H182.684L180.668 118.303L178.651 116.045Z" fill="white"/>
<path d="M331.336 274.25L330.951 266.496L336.916 268.601L331.336 274.25Z" fill="white"/>
<path d="M337.063 229.664L333.949 227.172V229.664L337.063 231.532V229.664Z" fill="white"/>
<path d="M177.173 204.746L180.668 207.706L178.921 210.353L174.284 206.639L177.173 204.746Z" fill="white"/>
<path d="M174.284 135.402H178.651L173.872 136.881L174.284 135.402Z" fill="white"/>
</g>
<path d="M250.454 128.319L258.351 120.893L266.177 128.395L275.674 123.166L281.389 132.379L291.887 129.676L295.131 140.02L305.971 140.013L306.54 150.839L317.042 153.529L314.901 164.155L324.404 169.372L319.688 179.133L327.596 186.549L320.6 194.831L326.414 203.979L317.579 210.262L320.935 220.569L310.815 224.456L311.503 235.275L300.734 236.522L298.709 247.173L287.969 245.703L283.359 255.515L273.322 251.421L266.417 259.778L257.712 253.316L248.946 259.694L242.122 251.27L232.045 255.267L227.531 245.411L216.777 246.778L214.855 236.108L204.099 234.756L204.891 223.945L194.808 219.96L198.265 209.685L189.49 203.318L195.393 194.226L188.478 185.877L196.456 178.537L191.834 168.732L201.387 163.607L199.348 152.959L209.877 150.372L210.55 139.553L221.39 139.664L224.734 129.352L235.205 132.156L241.008 122.998L250.454 128.319Z" fill="#040744"/>
<path opacity="0.4" d="M321.781 197.191L328.777 188.909L320.869 181.493L325.587 171.732L316.083 166.516L318.225 155.888L307.722 153.199L307.153 142.373L296.312 142.38L293.069 132.036L282.57 134.738L276.856 125.526L267.358 130.754L259.532 123.252L251.634 130.679L242.189 125.358L236.386 134.515L225.915 131.711L222.571 142.023L211.731 141.911L211.058 152.731L200.531 155.319L202.569 165.966L193.015 171.091L197.637 180.897L189.659 188.236L196.574 196.584L190.671 205.677L199.445 212.043L195.989 222.319L206.071 226.303L205.279 237.115L216.035 238.466L217.957 249.135L228.711 247.769L233.225 257.626L243.302 253.628L250.125 262.051L258.891 255.673L267.596 262.135L274.501 253.778L284.539 257.872L289.149 248.06L299.889 249.529L301.914 238.879L312.683 237.632L311.996 226.813L322.115 222.926L318.759 212.619L327.594 206.338L321.781 197.191ZM319.604 204.776L311.801 210.323L314.765 219.426L305.828 222.858L306.435 232.414L296.924 233.516L295.135 242.922L285.65 241.624L281.579 250.29L272.714 246.673L266.616 254.054L258.928 248.347L251.186 253.981L245.158 246.54L236.259 250.07L232.272 241.367L222.774 242.572L221.077 233.15L211.578 231.956L212.278 222.406L203.372 218.889L206.426 209.812L198.676 204.19L203.89 196.16L197.782 188.786L204.829 182.306L200.747 173.645L209.183 169.119L207.383 159.716L216.681 157.431L217.275 147.874L226.848 147.974L229.801 138.866L239.05 141.343L244.175 133.256L252.517 137.955L259.492 131.397L266.404 138.022L274.79 133.403L279.837 141.54L289.11 139.153L291.974 148.289L301.548 148.283L302.05 157.845L311.325 160.219L309.434 169.605L317.827 174.212L313.661 182.831L320.645 189.382L314.467 196.694L319.604 204.776Z" fill="black"/>
<path opacity="0.4" d="M250.454 128.319L258.351 120.893L266.177 128.395L275.674 123.166L281.389 132.379L291.887 129.676L295.131 140.02L305.971 140.013L306.54 150.839L317.042 153.529L314.901 164.155L324.404 169.372L319.688 179.133L327.596 186.549L320.6 194.831L326.414 203.979L317.579 210.262L320.935 220.569L310.815 224.456L311.503 235.275L300.734 236.522L298.709 247.173L287.969 245.703L283.359 255.515L273.322 251.421L266.417 259.778L257.712 253.316L248.946 259.694L242.122 251.27L232.045 255.267L227.531 245.411L216.777 246.778L214.855 236.108L204.099 234.756L204.891 223.945L194.808 219.96L198.265 209.685L189.49 203.318L195.393 194.226L188.478 185.877L196.456 178.537L191.834 168.732L201.387 163.607L199.348 152.959L209.877 150.372L210.55 139.553L221.39 139.664L224.734 129.352L235.205 132.156L241.008 122.998L250.454 128.319Z" fill="black"/>
<path d="M320.6 194.83L327.596 186.548L319.688 179.132L324.405 169.371L314.902 164.154L317.044 153.527L306.541 150.837L305.972 140.011L295.131 140.019L291.887 129.674L281.389 132.377L275.674 123.164L266.177 128.393L258.351 120.891L250.453 128.317L241.008 122.997L235.205 132.154L224.734 129.35L221.39 139.662L210.55 139.55L209.877 150.37L199.35 152.957L201.388 163.605L191.834 168.73L196.456 178.535L188.478 185.875L195.393 194.223L189.49 203.316L198.264 209.682L194.808 219.958L204.89 223.941L204.098 234.753L214.854 236.104L216.775 246.773L227.529 245.408L232.044 255.264L242.121 251.266L248.944 259.69L257.71 253.312L266.415 259.774L273.319 251.416L283.358 255.511L287.967 245.699L298.708 247.168L300.733 236.518L311.502 235.271L310.815 224.452L320.934 220.565L317.577 210.257L326.413 203.976L320.6 194.83ZM318.423 202.415L310.62 207.961L313.584 217.065L304.647 220.496L305.254 230.052L295.743 231.154L293.954 240.561L284.469 239.263L280.398 247.928L271.532 244.312L265.434 251.693L257.747 245.985L250.004 251.619L243.977 244.178L235.078 247.709L231.09 239.005L221.593 240.211L219.896 230.788L210.396 229.594L211.097 220.045L202.191 216.528L205.244 207.451L197.495 201.829L202.709 193.799L196.601 186.425L203.648 179.944L199.566 171.283L208.002 166.757L206.202 157.355L215.5 155.069L216.094 145.513L225.667 145.612L228.62 136.505L237.869 138.982L242.994 130.895L251.336 135.594L258.311 129.035L265.223 135.66L273.609 131.042L278.656 139.179L287.928 136.792L290.793 145.928L300.367 145.922L300.868 155.484L310.144 157.858L308.253 167.244L316.646 171.85L312.48 180.47L319.464 187.02L313.285 194.332L318.423 202.415Z" fill="#040744"/>
<path opacity="0.6" d="M320.6 194.83L327.596 186.548L319.688 179.132L324.405 169.371L314.902 164.154L317.044 153.527L306.541 150.837L305.972 140.011L295.131 140.019L291.887 129.674L281.389 132.377L275.674 123.164L266.177 128.393L258.351 120.891L250.453 128.317L241.008 122.997L235.205 132.154L224.734 129.35L221.39 139.662L210.55 139.55L209.877 150.37L199.35 152.957L201.388 163.605L191.834 168.73L196.456 178.535L188.478 185.875L195.393 194.223L189.49 203.316L198.264 209.682L194.808 219.958L204.89 223.941L204.098 234.753L214.854 236.104L216.775 246.773L227.529 245.408L232.044 255.264L242.121 251.266L248.944 259.69L257.71 253.312L266.415 259.774L273.319 251.416L283.358 255.511L287.967 245.699L298.708 247.168L300.733 236.518L311.502 235.271L310.815 224.452L320.934 220.565L317.577 210.257L326.413 203.976L320.6 194.83ZM318.423 202.415L310.62 207.961L313.584 217.065L304.647 220.496L305.254 230.052L295.743 231.154L293.954 240.561L284.469 239.263L280.398 247.928L271.532 244.312L265.434 251.693L257.747 245.985L250.004 251.619L243.977 244.178L235.078 247.709L231.09 239.005L221.593 240.211L219.896 230.788L210.396 229.594L211.097 220.045L202.191 216.528L205.244 207.451L197.495 201.829L202.709 193.799L196.601 186.425L203.648 179.944L199.566 171.283L208.002 166.757L206.202 157.355L215.5 155.069L216.094 145.513L225.667 145.612L228.62 136.505L237.869 138.982L242.994 130.895L251.336 135.594L258.311 129.035L265.223 135.66L273.609 131.042L278.656 139.179L287.928 136.792L290.793 145.928L300.367 145.922L300.868 155.484L310.144 157.858L308.253 167.244L316.646 171.85L312.48 180.47L319.464 187.02L313.285 194.332L318.423 202.415Z" fill="white"/>
<path opacity="0.4" d="M223.33 186.876C223.33 186.876 229.354 185.837 232.313 186.876C235.272 187.916 247.816 209.36 247.816 209.36C247.816 209.36 272.157 175.89 291.609 161.256C291.609 161.256 266.362 183.859 251.728 221.803C251.728 221.803 246.802 223.983 243.324 220.09C242.317 218.962 231.009 199.652 228.835 198.927C227.115 198.354 221.59 198.638 221.59 198.638L223.33 186.876Z" fill="black"/>
<path d="M222.148 185.695C222.148 185.695 228.173 184.655 231.132 185.695C234.091 186.734 246.635 208.178 246.635 208.178C246.635 208.178 270.976 174.708 290.428 160.074C290.428 160.074 265.181 182.677 250.547 220.621C250.547 220.621 245.62 222.801 242.143 218.908C241.136 217.78 229.828 198.471 227.654 197.745C225.934 197.173 220.409 197.456 220.409 197.456L222.148 185.695Z" fill="white"/>
<path d="M48.5876 330.534L82.6186 327.189V285.27H96.1055V327.176L130.274 330.534C133.666 330.867 136.251 333.719 136.251 337.128V342.239H90.6808H88.1804H42.6089V337.128C42.6089 333.719 45.1955 330.867 48.5876 330.534Z" fill="#263238"/>
<path opacity="0.1" d="M48.5876 330.534L82.6186 327.189V285.27H96.1055V327.176L130.274 330.534C133.666 330.867 136.251 333.719 136.251 337.128V342.239H90.6808H88.1804H42.6089V337.128C42.6089 333.719 45.1955 330.867 48.5876 330.534Z" fill="white"/>
<path d="M134.073 357.285C138.88 356.505 142.145 351.975 141.365 347.168C140.585 342.361 136.055 339.096 131.248 339.876C126.441 340.657 123.176 345.186 123.956 349.993C124.736 354.801 129.266 358.065 134.073 357.285Z" fill="#263238"/>
<path d="M54.9238 349.996C55.704 345.189 52.4395 340.659 47.6322 339.879C42.8249 339.099 38.2954 342.363 37.5152 347.171C36.735 351.978 39.9996 356.507 44.8069 357.288C49.6141 358.068 54.1436 354.803 54.9238 349.996Z" fill="#263238"/>
<path d="M85.1774 295.549H93.5466C96.2431 295.549 98.4281 293.364 98.4281 290.667V252.951H80.2959V290.667C80.2959 293.364 82.4809 295.549 85.1774 295.549Z" fill="#263238"/>
<path opacity="0.2" d="M85.1774 295.549H93.5466C96.2431 295.549 98.4281 293.364 98.4281 290.667V252.951H80.2959V290.667C80.2959 293.364 82.4809 295.549 85.1774 295.549Z" fill="white"/>
<path d="M42.261 179.008C42.261 179.008 52.3665 242.091 72.3046 252.953H52.0334C52.0334 252.953 32.0091 231.462 25.9087 179.008H42.261Z" fill="#263238"/>
<path opacity="0.1" d="M42.261 179.008C42.261 179.008 52.3665 242.091 72.3046 252.953H52.0334C52.0334 252.953 32.0091 231.462 25.9087 179.008H42.261Z" fill="white"/>
<path d="M130.073 244.033H51.0329C47.7719 244.033 45.1274 246.678 45.1274 249.939V257.839H135.979V249.939C135.979 246.677 133.335 244.033 130.073 244.033Z" fill="#040744"/>
<path d="M137.39 250.934H43.7158C42.4036 250.934 41.3406 251.998 41.3406 253.309V255.461C41.3406 256.773 42.4047 257.836 43.7158 257.836H137.39C138.702 257.836 139.765 256.772 139.765 255.461V253.309C139.765 251.998 138.702 250.934 137.39 250.934Z" fill="#263238"/>
<path opacity="0.6" d="M137.39 250.934H43.7158C42.4036 250.934 41.3406 251.998 41.3406 253.309V255.461C41.3406 256.773 42.4047 257.836 43.7158 257.836H137.39C138.702 257.836 139.765 256.772 139.765 255.461V253.309C139.765 251.998 138.702 250.934 137.39 250.934Z" fill="white"/>
<path d="M23.512 191.826H55.9863C65.5 191.826 71.6783 184.197 69.7886 174.787L67.2646 162.226C65.3736 152.816 56.1292 145.188 46.6166 145.188H14.1423C4.62856 145.188 -1.54976 152.816 0.339996 162.226L2.864 174.787C4.75494 184.197 13.9994 191.826 23.512 191.826Z" fill="#040744"/>
<path d="M54.0898 129.631H74.7803L76.6807 141.976L58.2733 145.186L54.0898 129.631Z" fill="#040744"/>
<path d="M191.495 301.089L184.07 303.994L178.725 293.928L173.871 284.769L182.105 279.836L187.077 291.075L191.495 301.089Z" fill="#E4897B"/>
<path opacity="0.2" d="M187.077 291.075L178.725 293.928L173.871 284.769L182.105 279.836L187.077 291.075Z" fill="black"/>
<path d="M185.536 285.587L175.429 291.01C175.429 291.01 137.25 223.877 131.376 224.434C125.504 224.992 69.8058 260.492 52.8193 247.382C35.8351 234.283 52.3622 194.803 52.3622 194.803C52.3622 194.803 85.5499 182.189 89.3601 189.911C90.1006 191.404 93.0451 196.968 93.827 199.538C94.5758 201.958 95.1428 203.998 95.1428 203.998C95.1428 203.998 95.1546 203.996 95.164 203.982C96.2353 203.55 130.939 189.319 146.434 196.946C162.174 204.706 185.536 285.587 185.536 285.587Z" fill="#040744"/>
<path opacity="0.3" d="M185.536 285.587L175.429 291.01C175.429 291.01 137.25 223.877 131.376 224.434C125.504 224.992 69.8058 260.492 52.8193 247.382C35.8351 234.283 52.3622 194.803 52.3622 194.803C52.3622 194.803 85.5499 182.189 89.3601 189.911C90.1006 191.404 93.0451 196.968 93.827 199.538C94.5758 201.958 95.1428 203.998 95.1428 203.998C95.1428 203.998 95.1546 203.996 95.164 203.982C96.2353 203.55 130.939 189.319 146.434 196.946C162.174 204.706 185.536 285.587 185.536 285.587Z" fill="white"/>
<path d="M130.643 340.333L122.721 339.425L122.685 328.245L122.667 317.989L132.246 317.537L131.402 329.607L130.643 340.333Z" fill="#E4897B"/>
<path opacity="0.2" d="M131.374 329.85L122.66 328.461L122.655 318.097L132.24 317.59L131.374 329.85Z" fill="black"/>
<path d="M170.49 287.675L185.277 280.27L186.814 286.534L175.619 292.311L170.49 287.675Z" fill="#263238"/>
<path d="M79.0605 247.488C79.0605 247.488 81.496 247.212 118.848 240.292C118.848 240.292 119.69 288.064 121.463 323.67L132.968 324.041C132.968 324.041 149.472 245.007 147.534 233.076C145.595 221.146 131.393 219.529 131.393 219.529C131.393 219.529 106.736 238.684 79.0605 247.488Z" fill="#040744"/>
<path opacity="0.4" d="M79.0605 247.488C79.0605 247.488 81.496 247.212 118.848 240.292C118.848 240.292 119.69 288.064 121.463 323.67L132.968 324.041C132.968 324.041 149.472 245.007 147.534 233.076C145.595 221.146 131.393 219.529 131.393 219.529C131.393 219.529 106.736 238.684 79.0605 247.488Z" fill="white"/>
<path opacity="0.3" d="M79.0605 247.488C79.0605 247.488 81.496 247.212 118.848 240.292C118.848 240.292 119.69 288.064 121.463 323.67L132.968 324.041C132.968 324.041 149.472 245.007 147.534 233.076C145.595 221.146 131.393 219.529 131.393 219.529C131.393 219.529 106.736 238.684 79.0605 247.488Z" fill="black"/>
<path d="M119.351 320.487L135.043 320.121L132.895 326.588L120.167 326.703L119.351 320.487Z" fill="#263238"/>
<path opacity="0.3" d="M95.1426 203.997L74.7793 211.247C74.7793 211.247 85.4848 203.254 93.8269 199.537C94.5769 201.957 95.1426 203.997 95.1426 203.997Z" fill="black"/>
<path d="M51.0525 191.972L50.7537 198.015L88.9209 189.925L88.0315 183.248L51.0525 191.972Z" fill="#263238"/>
<path opacity="0.2" d="M51.0525 191.972L50.7537 198.015L88.9209 189.925L88.0315 183.248L51.0525 191.972Z" fill="black"/>
<path d="M62.6386 188.257L60.7388 188.609L62.5338 198.285L64.4336 197.933L62.6386 188.257Z" fill="#040744"/>
<path d="M79.3093 185.796L70.978 187.674L72.4024 193.992L80.7336 192.114L79.3093 185.796Z" fill="white"/>
<path d="M85.8334 182.54L83.9336 182.893L85.7276 192.568L87.6274 192.216L85.8334 182.54Z" fill="#040744"/>
<path opacity="0.3" d="M62.6386 188.257L60.7388 188.609L62.5338 198.285L64.4336 197.933L62.6386 188.257Z" fill="white"/>
<path opacity="0.3" d="M85.8334 182.54L83.9336 182.893L85.7276 192.568L87.6274 192.216L85.8334 182.54Z" fill="white"/>
<path d="M206.261 314.259C205.019 313.882 203.719 313.736 202.424 313.826C202.424 313.826 197.63 311.824 191.839 302.287L186.892 302.938C185.183 303.193 183.815 304.488 183.468 306.18C183.417 306.41 183.402 306.648 183.422 306.884C183.635 308.072 183.926 309.244 184.291 310.394C185.244 314.031 188.779 321.628 188.779 321.628L189.587 321.299L187.05 314.132C186.2 311.696 189.165 313.754 190.734 316.114C192.302 318.474 194.526 320.759 199.814 318.761C205.975 316.399 208.412 315.129 206.261 314.259Z" fill="#040744"/>
<path d="M190.58 299.754C190.58 299.754 198.528 311.822 202.426 313.827C202.426 313.827 198.051 317.323 192.22 311.681C184.68 304.384 183.423 306.884 183.423 306.884C183.423 306.884 183.309 304.048 183.622 302.61C184.225 299.839 190.58 299.754 190.58 299.754Z" fill="#E4897B"/>
<path d="M142.499 354.381C141.382 353.721 140.154 353.27 138.875 353.051C138.875 353.051 134.693 349.97 131.329 339.332L126.368 338.791C124.647 338.633 123.012 339.567 122.273 341.128C122.17 341.341 122.097 341.568 122.062 341.8C121.989 343.005 121.992 344.213 122.074 345.417C122.138 349.176 123.771 357.394 123.771 357.394L124.634 357.267L123.869 349.703C123.621 347.134 126.014 349.838 126.978 352.501C127.942 355.166 129.56 357.913 135.171 357.225C141.712 356.392 144.382 355.737 142.499 354.381Z" fill="#040744"/>
<path d="M130.706 336.571C130.706 336.571 135.565 350.181 138.875 353.052C138.875 353.052 133.797 355.412 129.47 348.547C123.875 339.671 122.062 341.802 122.062 341.802C122.062 341.802 122.626 339.021 123.27 337.696C124.511 335.145 130.706 336.571 130.706 336.571Z" fill="#E4897B"/>
<path d="M72.3407 87.8745C72.3407 87.8745 53.6959 78.8096 47.5258 98.3201C41.3558 117.831 49.2644 131.304 49.2644 131.304C49.2644 131.304 70.8395 125.771 89.0143 129.632C89.0143 129.632 85.0883 113.006 86.032 103.456C86.9745 93.9064 72.3407 87.8745 72.3407 87.8745Z" fill="#263238"/>
<path d="M86.8931 132.051C90.9903 132.237 108.165 155.298 108.165 155.298L114.543 147.007C114.543 147.007 124.375 166.11 119.513 175.203C114.65 184.297 89.0167 159.44 89.0167 159.44L86.8931 132.051Z" fill="#040744"/>
<path opacity="0.6" d="M86.8906 132.053L88.5819 150.446L89.0142 159.438C89.0142 159.438 93.2284 163.523 98.5563 167.769C106.381 174.016 116.614 180.608 119.511 175.204C124.374 166.116 114.54 147.009 114.54 147.009L108.165 155.298L108.121 155.233C107.148 153.839 90.8568 132.225 86.8906 132.053Z" fill="white"/>
<path opacity="0.2" d="M88.5815 150.446L89.0138 159.438C89.0138 159.438 93.228 163.523 98.5559 167.769C99.0638 156.973 89.0138 141.25 89.0138 141.25L88.5815 150.446Z" fill="black"/>
<path opacity="0.2" d="M108.163 155.299L107.246 157.056L109.919 167.458C109.919 167.458 102.547 160.749 107.246 154.174L108.163 155.299Z" fill="black"/>
<path d="M89.0459 152.629C89.0459 152.913 89.0459 153.208 89.0341 153.503C89.0104 154.779 88.9868 156.125 88.9514 157.554C88.9514 157.672 88.9514 157.791 88.9396 157.921C88.916 158.688 88.9042 159.48 88.8805 160.295C88.8805 160.436 88.8687 160.566 88.8687 160.708C88.8215 161.854 88.786 163.046 88.7388 164.298C88.727 164.464 88.727 164.629 88.7152 164.795C88.6561 166.401 88.5853 168.09 88.5026 169.873C88.3136 173.877 88.0892 178.318 87.8057 183.243V183.255L87.2742 183.385L51.1917 191.936L51.0499 191.972C51.0499 191.972 52.5027 172.672 50.0106 161.747C49.987 161.653 49.9752 161.558 49.9397 161.464C49.9043 161.298 49.8688 161.133 49.8216 160.968C49.7389 160.661 49.6562 160.354 49.5854 160.035C49.5027 159.716 49.42 159.397 49.3255 159.066C49.0066 157.897 48.6641 156.68 48.298 155.405C48.0618 154.554 47.8019 153.68 47.5303 152.783C47.483 152.629 47.4358 152.487 47.3885 152.334C47.0696 151.271 46.7271 150.173 46.3728 149.039C46.2665 148.708 46.172 148.389 46.0657 148.047C45.546 146.428 44.9909 144.716 44.3885 142.921C43.7271 140.901 43.0067 138.751 42.2153 136.484C46.361 135.161 50.5657 134.11 54.8413 133.318C55.4436 133.2 56.0578 133.094 56.672 132.988C57.3216 132.869 57.9712 132.763 58.609 132.669C61.8452 132.149 65.1168 131.783 68.3885 131.547C69.6995 131.452 71.0105 131.381 72.3215 131.334C73.1129 131.334 73.9278 131.334 74.7428 131.358H75.0735C75.8648 131.381 76.6443 131.405 77.4121 131.428C77.7782 131.44 78.1443 131.464 78.5105 131.476C78.7467 131.488 78.9711 131.499 79.2073 131.511C79.4554 131.523 79.7152 131.535 79.9632 131.547C80.3884 131.57 80.79 131.594 81.1916 131.617C81.4987 131.641 81.7939 131.653 82.0892 131.677C82.6679 131.712 83.2113 131.747 83.7073 131.783C83.9317 131.806 84.1443 131.818 84.3451 131.842C84.5459 131.854 84.7349 131.865 84.912 131.877C85.101 131.901 85.2664 131.913 85.4317 131.925C85.5853 131.936 85.727 131.948 85.8569 131.96C86.4475 132.007 86.8136 132.043 86.8845 132.054C86.8845 132.054 86.8845 132.054 86.8963 132.066C86.8963 132.066 86.9317 132.066 86.9908 132.125L87.0735 132.208C87.1325 132.279 87.2034 132.373 87.2742 132.515C87.4868 132.905 87.7585 133.625 88.0419 134.936C88.0892 135.173 88.1364 135.432 88.1955 135.716C88.2664 136.129 88.3372 136.602 88.4199 137.121C88.479 137.488 88.5262 137.877 88.5734 138.302C88.6089 138.68 88.6561 139.07 88.6916 139.495C88.975 142.531 89.1168 146.712 89.0459 152.629Z" fill="#263238"/>
<path d="M69.4483 139.044C60.857 137.942 58.2739 134.268 58.2739 134.268C61.7865 130.961 61.1487 126.076 60.2511 123.029C59.7645 121.343 59.1916 120.219 59.1916 120.219L69.5333 122.153C69.2629 123.861 69.1448 125.299 69.1329 126.508C69.1117 127.837 69.2298 128.886 69.4247 129.707C70.1274 132.797 71.8884 132.84 71.8884 132.84C73.7062 136.234 69.4483 139.044 69.4483 139.044Z" fill="#E4897B"/>
<path opacity="0.2" d="M69.1339 126.509C69.1126 127.838 69.2307 128.887 69.4256 129.708C65.3189 129.167 62.2067 125.882 60.2508 123.029C59.7642 121.343 59.1914 120.219 59.1914 120.219L69.5331 122.153C69.2638 123.861 69.1445 125.299 69.1339 126.509Z" fill="black"/>
<path d="M71.8894 93.1358C81.4055 95.0775 83.4287 100.798 82.1248 110.746C80.4961 123.178 76.002 131.331 64.6375 126.286C49.2041 119.434 56.0863 89.9114 71.8894 93.1358Z" fill="#E4897B"/>
<path d="M76.082 108.961C76.082 108.961 76.8935 111.715 78.0462 113.473C78.0462 113.473 76.9679 114.601 75.3179 114.037L76.082 108.961Z" fill="#DE5753"/>
<path d="M71.6611 100.402C71.6611 100.402 69.0579 99.5093 67.2402 100.999" stroke="#263238" stroke-width="0.7247" stroke-miterlimit="10" stroke-linecap="round" stroke-linejoin="round"/>
<path d="M78.6602 101.412C78.6602 101.412 80.4684 101.132 82.2932 102.967" stroke="#263238" stroke-width="0.7247" stroke-miterlimit="10" stroke-linecap="round" stroke-linejoin="round"/>
<path d="M58.2169 107.054C58.2169 107.054 64.2618 100.143 64.8192 93.9697C64.8192 93.9697 85.2487 90.1134 82.2735 109.444C82.2735 109.444 87.5837 92.824 71.3035 89.1083C55.048 85.3973 50.209 109.338 57.2023 118.192C57.2023 118.192 54.4657 111.381 58.2169 107.054Z" fill="#263238"/>
<path d="M59.361 109.378C59.6103 107.833 58.5579 104.917 55.6453 104.647C52.6311 104.367 49.9902 110.134 57.0284 113.085C58.037 113.509 58.8414 112.601 59.361 109.378Z" fill="#E4897B"/>
<path d="M75.0547 116.89C74.1205 117.792 72.8189 119.658 72.8189 119.658C72.6288 119.571 72.4386 119.483 72.2532 119.385C69.702 118.133 68.9331 116.71 68.8528 115.513C68.8114 114.857 68.9862 114.264 69.187 113.811C69.4138 113.283 69.6961 112.959 69.6961 112.959C70.6516 114.431 72.9394 115.781 74.1925 116.45C74.7134 116.736 75.0547 116.89 75.0547 116.89Z" fill="#263238"/>
<path d="M74.1925 116.45L73.5122 117.249C71.1122 116.064 69.5827 114.908 69.187 113.811C69.4138 113.283 69.6961 112.959 69.6961 112.959C70.6528 114.431 72.9405 115.781 74.1925 116.45Z" fill="white"/>
<path d="M72.2534 119.387C69.7022 118.135 68.9333 116.711 68.853 115.514C69.7058 115.973 70.6825 116.623 71.4101 117.465C71.9688 118.106 72.1873 118.779 72.2534 119.387Z" fill="#DE5753"/>
<path d="M71.5453 93.8146C71.5453 93.8146 64.5166 108.691 54.6981 106.478C44.8796 104.266 64.1398 87.5453 64.1398 87.5453C64.1398 87.5453 81.4689 84.7568 87.6626 94.9213C93.8574 105.086 82.272 109.444 82.272 109.444C82.272 109.444 85.3535 97.4418 71.5453 93.8146Z" fill="#263238"/>
<path d="M71.6759 92.6836C71.6759 92.6836 70.6578 103.612 62.0913 105.773" stroke="#263238" stroke-width="0.5" stroke-miterlimit="10" stroke-linecap="round" stroke-linejoin="round"/>
<path d="M70.518 107.509C70.4873 108.264 70.055 108.86 69.5519 108.84C69.0487 108.82 68.6649 108.192 68.6956 107.437C68.7263 106.682 69.1586 106.086 69.6617 106.106C70.1649 106.125 70.5487 106.753 70.518 107.509Z" fill="#263238"/>
<path d="M69.4507 106.133L71.1184 105.555C71.1184 105.555 70.2456 106.904 69.4507 106.133Z" fill="#263238"/>
<path d="M79.9111 107.725C79.8804 108.48 79.4481 109.076 78.9449 109.056C78.4418 109.036 78.0579 108.408 78.0886 107.652C78.1193 106.897 78.5516 106.301 79.0548 106.321C79.5579 106.342 79.9418 106.97 79.9111 107.725Z" fill="#263238"/>
<path d="M78.8438 106.35L80.5115 105.771C80.5115 105.771 79.6386 107.121 78.8438 106.35Z" fill="#263238"/>
<path d="M93.1471 147.282C93.0845 147.83 93.4837 148.274 94.0388 148.274H103.916C104.471 148.274 104.972 147.83 105.035 147.282L107.24 127.788C107.303 127.24 106.903 126.66 106.348 126.66H96.4707C95.9156 126.66 95.4148 127.24 95.3522 127.788L93.1471 147.282Z" fill="#263238"/>
<path opacity="0.5" d="M96.4479 127.661L94.2133 147.343C94.1495 147.898 94.4389 148.275 94.9904 148.275H103.366C103.928 148.275 104.957 147.966 105.02 147.41L107.255 127.661C107.318 127.106 106.36 126.662 105.798 126.662H97.4223C96.8708 126.662 96.5105 127.106 96.4479 127.661Z" fill="white"/>
<path d="M113.837 148.903L108.689 140.167C108.689 140.167 108.704 135.574 108.254 134.493C107.804 133.413 102.761 130.974 101.77 131.337C100.779 131.701 100.419 140.712 101.32 141.925C102.22 143.138 105.372 144.489 105.372 144.489L105.157 146.2L108.165 155.296L113.837 148.903Z" fill="#E4897B"/>
<path d="M115.909 147.915L114.198 146.203L106.092 155.299L107.247 158.901L115.909 147.915Z" fill="#040744"/>
<path d="M74.7806 129.631L73.7554 133.409L75.8459 136.482L80.477 179.667L93.1407 177.798C92.2715 144.148 91.9041 143.971 87.0793 131.862L75.7195 131.073L74.7806 129.631Z" fill="#040744"/>
<path opacity="0.6" d="M74.7806 129.631L73.7554 133.409L75.8459 136.482L80.477 179.667L93.1407 177.798C92.2715 144.148 91.9041 143.971 87.0793 131.862L75.7195 131.073L74.7806 129.631Z" fill="white"/>
<path d="M54.0899 129.631L65.3435 134.343L62.5773 139.044L65.3068 183.248L48.2482 188.233C48.2482 188.233 35.8691 155.753 42.214 136.482L53.3872 133.253L54.0899 129.631Z" fill="#040744"/>
<path opacity="0.6" d="M64.8688 176.251L65.3058 183.255L57.6995 185.475L48.2508 188.239C48.2508 188.239 42.7705 173.853 40.9752 158.546C40.0657 150.857 40.0894 142.932 42.2153 136.483L53.3885 133.259L54.0854 129.633L65.3412 134.345L62.5775 139.046L63.6641 156.597L64.8688 176.251Z" fill="white"/>
<path opacity="0.2" d="M74.8488 162.443C74.8488 162.443 70.6086 168.62 64.8685 176.25C62.648 179.202 60.2031 182.368 57.6992 185.474L48.2504 188.238C48.2504 188.238 42.7701 173.852 40.9749 158.545C45.6048 153.903 51.274 148.281 51.274 148.281C51.274 148.281 53.8725 156.313 52.7268 163.293L63.6638 156.596L67.0653 154.517L74.8488 162.443Z" fill="black"/>
<path d="M65.6187 157.454L77.321 148.272C77.321 148.272 79.0926 143.345 79.8048 142.49C80.517 141.635 90.7784 137.849 91.6324 137.747C92.4875 137.645 91.6843 146.154 90.3497 147.6C89.015 149.047 80.8017 151.899 80.8017 151.899L68.5478 163.438L65.6187 157.454Z" fill="#E4897B"/>
<path d="M42.2142 136.484C35.3426 139.927 32.2859 178.741 44.2197 185.443C56.1535 192.145 73.9869 161.861 73.9869 161.861L67.0598 154.51C67.0598 154.51 52.5311 166.673 50.7783 165.556C49.0244 164.439 51.0193 152.552 51.0193 152.552C51.0193 152.552 53.0614 148.954 48.7634 143.302C44.463 137.648 42.2142 136.484 42.2142 136.484Z" fill="#040744"/>
<path opacity="0.6" d="M42.2142 136.484C35.3426 139.927 32.2859 178.741 44.2197 185.443C56.1535 192.145 73.9869 161.861 73.9869 161.861L67.0598 154.51C67.0598 154.51 52.5311 166.673 50.7783 165.556C49.0244 164.439 51.0193 152.552 51.0193 152.552C51.0193 152.552 53.0614 148.954 48.7634 143.302C44.463 137.648 42.2142 136.484 42.2142 136.484Z" fill="white"/>
<path d="M74.1215 164.558L76.1955 163.312L68.4132 151.902L65.5562 153.496L74.1215 164.558Z" fill="#040744"/>
</svg>
