<svg width="479" height="421" viewBox="0 0 479 421" fill="none" xmlns="http://www.w3.org/2000/svg">
<path d="M459.754 72.7261C455.963 60.1199 449.295 48.546 439.749 37.9646C430.184 27.3833 417.139 18.6483 400.615 11.7398C384.09 4.83103 363.093 1.37695 337.626 1.37695C317.31 1.37695 296.605 4.11644 275.512 9.59575C254.399 15.0949 236.086 22.9166 220.552 33.0811L240.771 88.5913L229.935 97.3699L245.65 101.988C261.164 93.8687 275.298 87.9729 288.051 84.3C300.785 80.6472 314.316 78.8207 328.663 78.8207C342.991 78.8207 353.84 82.2751 361.207 89.1835C368.576 96.1121 372.25 104.43 372.25 114.197C372.25 125.99 368.459 136.452 360.916 145.604C353.334 154.756 344.974 164.007 335.817 173.357C329.46 179.849 323.278 186.559 317.31 193.468C311.341 200.396 306.053 207.801 301.485 215.742C296.897 223.663 293.222 232.2 290.442 241.352C287.643 250.504 286.263 260.767 286.263 272.143C286.263 275.815 286.34 280.183 286.554 285.265C286.59 286.203 286.639 287.117 286.695 288.019H271.838L288.051 298.983H366.885C366.476 296.541 366.282 293.703 366.282 290.447C366.282 287.191 366.282 284.749 366.282 283.121C366.282 276.212 367.682 269.403 370.462 262.693C373.242 255.983 376.741 249.591 380.921 243.476C385.101 237.382 389.767 231.584 394.958 226.105C400.129 220.606 405.106 215.425 409.888 210.541C416.246 204.05 422.817 197.141 429.582 189.816C436.348 182.49 442.335 174.787 447.507 166.648C452.678 158.509 456.955 149.674 460.338 140.105C463.72 130.556 465.431 120.094 465.431 108.699C465.431 97.3231 463.525 85.3324 459.754 72.7261Z" fill="#FFBE2A"/>
<path d="M311.973 74.9493C297.794 74.9493 284.422 76.7168 271.838 80.252C259.234 83.8064 245.266 89.5127 229.934 97.3708L205.13 30.6831C220.481 20.8462 238.58 13.2764 259.445 7.9542C280.291 2.65151 300.753 0 320.83 0C345.999 0 366.749 3.34304 383.08 10.0291C399.411 16.7152 412.303 25.1687 421.755 35.4092C431.189 45.6496 437.779 56.8508 441.525 69.0509C445.252 81.251 447.135 92.8557 447.135 103.865C447.135 114.893 445.445 125.018 442.102 134.259C438.759 143.52 434.532 152.07 429.421 159.947C424.311 167.824 418.393 175.279 411.707 182.368C405.021 189.458 398.527 196.144 392.244 202.427C387.518 207.153 382.6 212.167 377.489 217.49C372.359 222.792 367.748 228.402 363.617 234.301C359.486 240.218 356.028 246.405 353.28 252.899C350.533 259.393 349.15 265.983 349.15 272.669C349.15 274.244 349.15 276.607 349.15 279.758C349.15 282.909 349.342 285.657 349.746 288.02H271.838C271.031 284.081 270.55 279.662 270.358 274.744C270.147 269.825 270.07 265.599 270.07 262.044C270.07 251.035 271.434 241.102 274.2 232.245C276.948 223.388 280.579 215.126 285.113 207.46C289.628 199.775 294.854 192.609 300.753 185.904C306.651 179.218 312.76 172.724 319.043 166.441C328.093 157.392 336.354 148.439 343.847 139.582C351.302 130.725 355.048 120.599 355.048 109.187C355.048 99.734 351.417 91.684 344.135 84.9788C336.854 78.2924 326.133 74.9493 311.973 74.9493Z" fill="#FFD02A"/>
<path d="M372.279 375.506C372.279 389.719 367.678 400.686 358.476 408.423C349.274 416.175 338.874 420.036 327.261 420.036C315.633 420.036 305.233 416.175 296.031 408.423C286.844 400.686 282.243 389.719 282.243 375.506C282.243 361.309 286.844 350.342 296.031 342.589C310.196 330.635 331.152 327.972 347.736 336.361C362.452 343.806 372.279 358.925 372.279 375.506Z" fill="#FFBE2A"/>
<path d="M356.858 375.506C356.858 389.719 352.257 400.686 343.055 408.423C333.853 416.176 323.453 420.036 311.84 420.036C300.211 420.036 289.811 416.176 280.609 408.423C271.423 400.686 266.822 389.719 266.822 375.506C266.822 361.309 271.423 350.342 280.609 342.59C289.811 334.853 300.211 330.977 311.84 330.977C323.453 330.977 333.853 334.853 343.055 342.59C352.257 350.342 356.858 361.309 356.858 375.506Z" fill="#FFD02A"/>
<path d="M123.476 174.279C124.34 169.67 121.304 165.234 116.696 164.371C112.087 163.507 107.651 166.543 106.787 171.151C105.923 175.76 108.959 180.196 113.568 181.06C118.177 181.924 122.613 178.888 123.476 174.279Z" fill="#040744" fill-opacity="0.43"/>
<path d="M127.538 190.242C128.024 187.65 126.301 185.152 123.691 184.663C121.08 184.174 118.57 185.878 118.085 188.471C117.599 191.063 119.321 193.561 121.932 194.05C124.542 194.539 127.052 192.834 127.538 190.242Z" fill="#040744" fill-opacity="0.43"/>
<path d="M117.816 153.617C130.87 140.563 130.87 119.398 117.816 106.344C104.762 93.2898 83.5969 93.2898 70.5428 106.344C57.4887 119.398 57.4887 140.563 70.5428 153.617C83.5969 166.671 104.762 166.671 117.816 153.617Z" fill="#040744" fill-opacity="0.43"/>
<path d="M81.3468 134.191C83.6727 134.191 85.5583 132.305 85.5583 129.979C85.5583 127.653 83.6727 125.768 81.3468 125.768C79.0208 125.768 77.1353 127.653 77.1353 129.979C77.1353 132.305 79.0208 134.191 81.3468 134.191Z" fill="white"/>
<path d="M94.1817 134.191C96.5077 134.191 98.3932 132.305 98.3932 129.979C98.3932 127.653 96.5077 125.768 94.1817 125.768C91.8558 125.768 89.9702 127.653 89.9702 129.979C89.9702 132.305 91.8558 134.191 94.1817 134.191Z" fill="white"/>
<path d="M107.017 134.191C109.343 134.191 111.228 132.305 111.228 129.979C111.228 127.653 109.343 125.768 107.017 125.768C104.691 125.768 102.805 127.653 102.805 129.979C102.805 132.305 104.691 134.191 107.017 134.191Z" fill="white"/>
<path d="M70.2361 403.579L73.3593 415.62C74.1739 418.76 77.2098 420.882 80.5687 420.653C90.8095 419.957 112.087 417.449 124.299 408.447L120.828 391.094C104.037 390.146 88.334 391.08 74.7372 395.657C71.3328 396.803 69.3637 400.216 70.2361 403.579Z" fill="#102048"/>
<path d="M89.8062 413.163C89.6286 413.163 89.4656 413.046 89.4153 412.866L85.2216 397.851C85.1612 397.635 85.2875 397.411 85.5034 397.351C85.7206 397.291 85.9434 397.417 86.0037 397.633L90.1974 412.648C90.2574 412.864 90.1315 413.088 89.9156 413.148C89.8789 413.158 89.8419 413.163 89.8062 413.163Z" fill="white"/>
<path d="M98.8695 411.134C98.692 411.134 98.529 411.017 98.4786 410.837L94.285 395.822C94.2249 395.606 94.3509 395.382 94.5668 395.322C94.7843 395.261 95.0067 395.388 95.0671 395.604L99.2607 410.619C99.3211 410.835 99.1948 411.059 98.9789 411.119C98.9423 411.129 98.9056 411.134 98.8695 411.134Z" fill="white"/>
<path d="M109.396 338.492L70.3701 350.074L99.3523 389.784L140.96 393.094L198.35 368.826L176.542 336.01L109.396 338.492Z" fill="#FFD02A"/>
<path d="M157.508 344.008C243.211 318.637 256.984 394.381 123.265 408.17C118.542 402.855 113.022 393.633 110.831 385.925L181.446 353.292L157.508 344.008Z" fill="#FFD02A"/>
<path d="M161.148 398.292C157.14 397.009 153.299 394.473 153.299 394.473L139.525 398.793L142.682 413.776L156.99 416.684C161.349 408.711 161.604 402.165 161.148 398.292Z" fill="#F9B384"/>
<path d="M111.136 386.45L110.524 385.397C125.256 376.835 162.991 356.267 195.14 350.201L195.366 351.398C163.402 357.429 125.813 377.92 111.136 386.45Z" fill="#FFBE2A"/>
<path d="M109.396 338.492C29.6233 323.325 8.9628 399.988 142.682 413.777C147.405 408.462 151.107 402.182 153.299 394.473C132.759 380.729 109.793 367.666 84.6222 355.222L109.396 338.492Z" fill="#FFD02A"/>
<path d="M152.972 394.984C149.178 392.569 145.224 390.016 141.037 387.313C120.023 373.745 96.2049 358.367 75.9688 349.598L76.4528 348.48C96.7811 357.29 120.644 372.697 141.697 386.29C145.882 388.992 149.834 391.544 153.626 393.957L152.972 394.984Z" fill="#FFBE2A"/>
<path d="M50.8668 376.503L49.8013 375.915C52.7956 370.494 57.5918 366.837 64.0565 365.047L64.3815 366.22C58.1574 367.944 53.7368 371.308 50.8668 376.503Z" fill="#FFBE2A"/>
<path d="M217.364 371.888C214.494 366.692 210.074 363.329 203.85 361.605L204.175 360.432C210.64 362.222 215.435 365.878 218.43 371.299L217.364 371.888Z" fill="#FFBE2A"/>
<path d="M135.212 413.102L134.322 412.272C140.703 405.437 144.622 398.223 146.303 390.215L147.495 390.465C145.767 398.696 141.749 406.101 135.212 413.102Z" fill="#FFBE2A"/>
<path d="M200.933 393.828C190.712 387.513 170.899 398.424 165.925 398.975C164.475 399.136 162.797 398.819 161.148 398.291C161.603 402.164 161.349 408.709 156.99 416.682L159.421 417.176C159.421 417.176 176.223 423.335 194.046 419.75C210.498 416.441 208.968 398.791 200.933 393.828Z" fill="#102048"/>
<path d="M187.001 414.482C186.961 414.482 186.92 414.476 186.879 414.463C186.665 414.395 186.547 414.168 186.614 413.954C187.828 410.109 188.358 402.545 184.841 397.465C184.714 397.281 184.76 397.028 184.944 396.901C185.128 396.773 185.381 396.819 185.508 397.003C189.191 402.323 188.65 410.201 187.388 414.198C187.333 414.371 187.174 414.482 187.001 414.482Z" fill="white"/>
<path d="M178.987 416.003C178.946 416.003 178.905 415.997 178.864 415.984C178.651 415.917 178.532 415.689 178.6 415.475C179.814 411.63 180.344 404.066 176.827 398.987C176.699 398.802 176.745 398.549 176.929 398.422C177.113 398.294 177.366 398.34 177.494 398.524C181.177 403.844 180.636 411.722 179.373 415.719C179.319 415.892 179.159 416.003 178.987 416.003Z" fill="white"/>
<path d="M95.2832 239.645C95.2832 239.645 115.374 222.561 114.63 219.315C114.098 216.995 108.407 220.397 108.407 220.397C108.407 220.397 116.388 210.928 115.982 209.778C115.257 207.723 109.737 211.553 109.737 211.553C109.737 211.553 113.468 206.183 111.684 205.308C109.901 204.433 106.012 207.742 106.012 207.742C106.012 207.742 108.284 204.761 107.216 203.978C106.149 203.196 101.544 206.413 101.544 206.413C101.544 206.413 103.197 202.653 99.6859 204.078C96.1754 205.504 71.5596 228.094 71.5596 228.094L95.2832 239.645Z" fill="#F9B384"/>
<path d="M103.503 219.383C103.406 219.383 103.308 219.348 103.23 219.277C99.7811 216.126 98.2607 215.361 94.456 214.19C94.2417 214.125 94.1216 213.898 94.1875 213.683C94.2534 213.469 94.4804 213.348 94.695 213.415C98.637 214.627 100.211 215.419 103.778 218.677C103.943 218.829 103.955 219.085 103.804 219.251C103.723 219.338 103.613 219.383 103.503 219.383Z" fill="#E28B6D"/>
<path d="M97.4507 228.649C97.4319 228.649 97.413 228.647 97.3942 228.645C97.1721 228.613 97.0173 228.408 97.0484 228.186C97.4432 225.362 98.3324 223.596 99.7671 222.79C100.993 222.1 102.589 222.171 104.51 223C104.716 223.089 104.811 223.328 104.722 223.533C104.633 223.739 104.394 223.835 104.188 223.745C102.513 223.021 101.159 222.938 100.165 223.497C98.9828 224.162 98.2045 225.777 97.8523 228.299C97.8237 228.501 97.65 228.649 97.4507 228.649Z" fill="#E28B6D"/>
<path d="M96.5032 211.569C96.3954 211.569 96.2876 211.526 96.2077 211.442C96.0538 211.278 96.0616 211.022 96.2246 210.868L101.266 206.117C101.429 205.962 101.686 205.971 101.84 206.134C101.994 206.297 101.986 206.554 101.823 206.707L96.7814 211.459C96.7032 211.533 96.6032 211.569 96.5032 211.569Z" fill="#E28B6D"/>
<path d="M101.17 213.193C101.069 213.193 100.968 213.156 100.889 213.08C100.727 212.925 100.722 212.668 100.877 212.506L105.72 207.461C105.875 207.299 106.132 207.294 106.294 207.449C106.455 207.605 106.46 207.862 106.305 208.023L101.463 213.068C101.383 213.152 101.277 213.193 101.17 213.193Z" fill="#E28B6D"/>
<path d="M105.938 216.033C105.839 216.033 105.74 215.997 105.662 215.924C105.498 215.772 105.489 215.515 105.642 215.351L109.441 211.275C109.594 211.112 109.85 211.103 110.015 211.255C110.179 211.408 110.188 211.665 110.035 211.829L106.236 215.904C106.155 215.99 106.047 216.033 105.938 216.033Z" fill="#E28B6D"/>
<path d="M171.175 353.912L97.7205 356.753L89.604 289.791C89.604 289.791 114.195 266.467 123.656 257.878L139.627 257.059C189.181 279.583 181.067 307.715 171.175 353.912Z" fill="#050B30"/>
<path d="M139.627 257.059C139.627 257.059 196.32 261.907 214.192 300.749C231.681 338.755 159.811 352.289 159.811 352.289L139.627 257.059Z" fill="#050B30"/>
<path d="M74.8237 265.382L98.251 236.872L76.3435 223.596C67.2049 229.95 49.5329 244.342 34.5566 260.64C31.2509 264.238 28.6689 268.44 27.3683 273.066C26.2586 277.014 26.057 280.914 26.6807 284.733C28.3063 294.685 36.1351 302.366 46.5857 303.589C55.5109 304.634 89.6033 301.966 117.199 293.849L125.316 262.523C121.145 260.156 90.1477 259.745 74.8237 265.382Z" fill="#050B30"/>
<g opacity="0.8">
<path d="M186.939 272.474C187.061 272.446 187.183 272.418 187.306 272.39C187.049 272.238 186.792 272.091 186.535 271.942C182.381 272.898 178.094 273.876 173.868 274.386C171.329 274.691 162.844 275.252 160.365 269.599C159.131 266.786 160.065 263.658 161.46 261.463C161.256 261.404 161.054 261.347 160.852 261.289C159.423 263.615 158.506 266.877 159.807 269.843C162.455 275.881 171.296 275.309 173.942 274.989C178.289 274.466 182.686 273.454 186.939 272.474Z" fill="white"/>
<path d="M213.397 316.284C210.688 315.237 207.89 314.155 204.949 314.433C199.789 314.92 195.374 320.022 195.106 325.806C194.923 329.75 196.43 333.883 199.302 337.518C199.475 337.41 199.648 337.301 199.819 337.192C197.011 333.659 195.538 329.649 195.714 325.835C195.969 320.342 200.137 315.499 205.006 315.039C207.803 314.779 210.413 315.784 213.177 316.851C214.163 317.232 215.166 317.616 216.185 317.943C216.238 317.747 216.289 317.55 216.336 317.352C215.343 317.032 214.362 316.657 213.397 316.284Z" fill="white"/>
<path d="M70.3023 296.922C66.7628 293.994 61.263 293.212 55.2162 294.775C49.8272 296.169 45.2033 298.93 42.0269 302.584C42.2356 302.652 42.4395 302.728 42.6512 302.79C45.7416 299.323 50.1931 296.703 55.3682 295.365C61.2234 293.849 66.5264 294.59 69.9146 297.391C71.5249 298.722 72.6635 300.451 73.4911 302.317C73.7002 302.293 73.9099 302.269 74.1203 302.244C73.2541 300.237 72.0467 298.364 70.3023 296.922Z" fill="white"/>
<path d="M38.3052 256.661C44.9374 255.013 51.4091 252.699 57.3784 249.26C59.6338 247.961 62.1808 246.305 63.9719 243.873C65.8773 241.285 66.5104 238.204 65.6657 235.632C65.3342 234.623 64.7475 233.737 64.0141 233.027C63.8589 233.154 63.7021 233.283 63.546 233.411C64.2307 234.063 64.7793 234.884 65.0871 235.822C65.8705 238.207 65.2706 241.082 63.482 243.512C61.7577 245.853 59.2757 247.465 57.0748 248.733C51.4445 251.976 45.3545 254.219 39.099 255.84C38.8337 256.112 38.5694 256.387 38.3052 256.661Z" fill="white"/>
</g>
<path d="M144.815 242.172L144.805 243.211L144.64 259.357L144.62 261.106C144.589 263.843 143.467 266.323 141.656 268.124C139.855 269.914 137.376 271.036 134.628 271.057C129.092 271.087 124.564 266.642 124.513 261.096L124.317 241.143L144.815 242.172Z" fill="#F9B384"/>
<path d="M144.805 243.213L144.64 259.358C135.667 255.705 131.973 245.991 131.973 245.991L144.805 243.213Z" fill="#102048"/>
<path d="M148.355 215.036C151.57 218.895 160.96 240.762 151.442 248.222C140.731 256.617 124.43 242.82 124.43 242.82L122.243 217.351L136.392 213.621L148.355 215.036Z" fill="#F9B384"/>
<path d="M115.035 213.635C115.035 213.635 83.6511 230.003 109.241 277.186C112.527 283.246 119.807 285.892 126.035 282.935C132.715 279.763 135.245 271.601 131.617 265.157C127.432 257.721 123.392 248.146 125.116 241.02L115.035 213.635Z" fill="#102048"/>
<path d="M123.998 227.384C127.314 224.068 127.314 218.693 123.998 215.378C120.683 212.063 115.308 212.063 111.992 215.378C108.677 218.693 108.677 224.068 111.992 227.384C115.308 230.699 120.683 230.699 123.998 227.384Z" fill="#FFD02A"/>
<path d="M128.442 231.583C127.525 226.287 126.966 222.655 132.319 219.925C132.319 219.925 151.185 223.355 154.786 216.237C158.388 209.12 152.9 197.887 141.409 205.69C111.996 199.944 108.051 227.471 116.97 236.647L125.772 235.296C127.543 235.024 128.748 233.349 128.442 231.583Z" fill="#102048"/>
<path d="M143.049 232.852C143.742 232.852 144.303 232.291 144.303 231.598C144.303 230.905 143.742 230.344 143.049 230.344C142.356 230.344 141.795 230.905 141.795 231.598C141.795 232.291 142.356 232.852 143.049 232.852Z" fill="#102048"/>
<path d="M151.539 228.672C152.231 228.672 152.793 228.111 152.793 227.418C152.793 226.726 152.231 226.164 151.539 226.164C150.846 226.164 150.285 226.726 150.285 227.418C150.285 228.111 150.846 228.672 151.539 228.672Z" fill="#102048"/>
<path d="M150.671 235.457C150.583 235.457 150.495 235.425 150.426 235.36C150.284 235.225 150.278 235 150.413 234.858C150.916 234.328 151.467 233.584 151.236 233.044C150.995 232.484 149.979 232.242 149.513 232.242C148.513 232.242 148.032 230.462 147.946 230.105C147.9 229.914 148.017 229.722 148.208 229.676C148.398 229.629 148.59 229.747 148.636 229.938C148.819 230.69 149.233 231.532 149.513 231.532C149.992 231.532 151.457 231.758 151.888 232.764C152.197 233.482 151.874 234.352 150.928 235.347C150.858 235.42 150.764 235.457 150.671 235.457Z" fill="#102048"/>
<path d="M150.734 240.219C150.666 240.219 150.597 240.199 150.536 240.158C148.175 238.564 145.79 239.9 145.766 239.914C145.597 240.012 145.38 239.954 145.281 239.783C145.183 239.613 145.242 239.396 145.412 239.298C145.525 239.234 148.208 237.73 150.933 239.569C151.095 239.679 151.138 239.9 151.029 240.062C150.96 240.164 150.848 240.219 150.734 240.219Z" fill="#102048"/>
<path d="M142.5 226.167C143.214 227.51 141.97 227.779 140.513 228.553C139.057 229.327 137.565 229.611 137.225 228.97C136.885 228.33 137.79 227.183 139.246 226.409C140.703 225.635 141.948 225.127 142.5 226.167Z" fill="#102048"/>
<path d="M147.813 223.742C148.126 224.941 149.02 224.416 150.32 224.076C151.621 223.736 152.671 223.082 152.521 222.511C152.372 221.939 151.196 221.751 149.896 222.092C148.596 222.431 147.57 222.815 147.813 223.742Z" fill="#102048"/>
<path opacity="0.4" d="M139.781 240.166C141.283 238.781 141.377 236.442 139.992 234.94C138.608 233.439 136.268 233.344 134.766 234.729C133.265 236.114 133.17 238.453 134.555 239.955C135.94 241.456 138.28 241.551 139.781 240.166Z" fill="#EB5D60"/>
<path d="M127.723 240.92C129.413 238.73 128.765 235.398 126.277 233.478C123.788 231.558 120.401 231.776 118.711 233.966C117.021 236.156 117.669 239.488 120.157 241.408C122.646 243.329 126.033 243.11 127.723 240.92Z" fill="#F9B384"/>
<path d="M125.418 239.32C125.221 239.32 125.062 239.161 125.062 238.965C125.062 237.917 124.551 236.948 123.696 236.373C122.964 235.88 122.091 235.765 121.362 236.062C121.18 236.135 120.973 236.049 120.899 235.867C120.825 235.685 120.912 235.479 121.094 235.404C122.042 235.018 123.163 235.158 124.092 235.783C125.145 236.49 125.773 237.68 125.773 238.965C125.772 239.161 125.614 239.32 125.418 239.32Z" fill="#102048"/>
<path d="M74.5205 265.093L61.7065 278.955L62.3025 279.506L75.1165 265.644L74.5205 265.093Z" fill="#102048"/>
<path d="M164.8 324.677L164.563 323.901C173.891 321.058 182.945 317.656 191.149 307.396L191.783 307.903C183.434 318.344 174.255 321.796 164.8 324.677Z" fill="#102048"/>
<path d="M170.472 293.246H91.1185C88.2647 293.246 85.9512 295.749 85.9512 298.836V355.492C85.9512 358.579 88.2647 361.082 91.1185 361.082H170.472C173.326 361.082 175.639 358.579 175.639 355.492V298.836C175.639 295.749 173.325 293.246 170.472 293.246Z" fill="#102048"/>
<path d="M134.984 323.582C135.285 323.582 135.529 323.847 135.529 324.173V330.154C135.529 330.48 135.285 330.744 134.984 330.744H126.606C126.304 330.744 126.06 330.48 126.06 330.154V324.173C126.06 323.847 126.304 323.582 126.606 323.582H134.984ZM134.984 321.959H126.606C125.41 321.959 124.437 322.952 124.437 324.173V330.154C124.437 331.375 125.41 332.368 126.606 332.368H134.984C136.18 332.368 137.153 331.375 137.153 330.154V324.173C137.153 322.952 136.18 321.959 134.984 321.959Z" fill="#1F3C88"/>
</svg>
