<svg width="383" height="524" viewBox="0 0 383 524" fill="none" xmlns="http://www.w3.org/2000/svg">
<rect width="383" height="524" fill="#FEB546" fill-opacity="0.47"/>
<g clip-path="url(#clip0_437_173)">
<circle cx="317" cy="124.793" r="5" fill="#040744"/>
<circle cx="317" cy="139.793" r="5" fill="#040744"/>
<circle cx="317" cy="154.793" r="5" fill="#040744"/>
<circle cx="317" cy="169.793" r="5" fill="#040744"/>
<circle cx="317" cy="184.793" r="5" fill="#040744"/>
<circle cx="317" cy="199.793" r="5" fill="#040744"/>
<circle cx="317" cy="214.793" r="5" fill="#040744"/>
<circle cx="317" cy="229.793" r="5" fill="#040744"/>
<circle cx="317" cy="244.793" r="5" fill="#040744"/>
<circle cx="317" cy="259.793" r="5" fill="#040744"/>
<circle cx="332" cy="124.793" r="5" fill="#040744"/>
<circle cx="332" cy="139.793" r="5" fill="#040744"/>
<circle cx="332" cy="154.793" r="5" fill="#040744"/>
<circle cx="332" cy="169.793" r="5" fill="#040744"/>
<circle cx="332" cy="184.793" r="5" fill="#040744"/>
<circle cx="332" cy="199.793" r="5" fill="#040744"/>
<circle cx="332" cy="214.793" r="5" fill="#040744"/>
<circle cx="332" cy="229.793" r="5" fill="#040744"/>
<circle cx="332" cy="244.793" r="5" fill="#040744"/>
<circle cx="332" cy="259.793" r="5" fill="#040744"/>
<circle cx="347" cy="124.793" r="5" fill="#040744"/>
<circle cx="347" cy="139.793" r="5" fill="#040744"/>
<circle cx="347" cy="154.793" r="5" fill="#040744"/>
<circle cx="347" cy="169.793" r="5" fill="#040744"/>
<circle cx="347" cy="184.793" r="5" fill="#040744"/>
<circle cx="347" cy="199.793" r="5" fill="#040744"/>
<circle cx="347" cy="214.793" r="5" fill="#040744"/>
<circle cx="347" cy="229.793" r="5" fill="#040744"/>
<circle cx="347" cy="244.793" r="5" fill="#040744"/>
<circle cx="347" cy="259.793" r="5" fill="#040744"/>
<circle cx="362" cy="124.793" r="5" fill="#040744"/>
<circle cx="362" cy="139.793" r="5" fill="#040744"/>
<circle cx="362" cy="154.793" r="5" fill="#040744"/>
<circle cx="362" cy="169.793" r="5" fill="#040744"/>
<circle cx="362" cy="184.793" r="5" fill="#040744"/>
<circle cx="362" cy="199.793" r="5" fill="#040744"/>
<circle cx="362" cy="214.793" r="5" fill="#040744"/>
<circle cx="362" cy="229.793" r="5" fill="#040744"/>
<circle cx="362" cy="244.793" r="5" fill="#040744"/>
<circle cx="362" cy="259.793" r="5" fill="#040744"/>
<circle cx="377" cy="124.793" r="5" fill="#040744"/>
<circle cx="377" cy="139.793" r="5" fill="#040744"/>
<circle cx="377" cy="154.793" r="5" fill="#040744"/>
<circle cx="377" cy="169.793" r="5" fill="#040744"/>
<circle cx="377" cy="184.793" r="5" fill="#040744"/>
<circle cx="377" cy="199.793" r="5" fill="#040744"/>
<circle cx="377" cy="214.793" r="5" fill="#040744"/>
<circle cx="377" cy="229.793" r="5" fill="#040744"/>
<circle cx="377" cy="244.793" r="5" fill="#040744"/>
<circle cx="377" cy="259.793" r="5" fill="#040744"/>
</g>
<circle cx="317" cy="274.793" r="5" fill="#040744"/>
<circle cx="317" cy="289.793" r="5" fill="#040744"/>
<circle cx="317" cy="304.793" r="5" fill="#040744"/>
<circle cx="317" cy="319.793" r="5" fill="#040744"/>
<circle cx="317" cy="334.793" r="5" fill="#040744"/>
<circle cx="317" cy="349.793" r="5" fill="#040744"/>
<circle cx="317" cy="364.793" r="5" fill="#040744"/>
<circle cx="317" cy="379.793" r="5" fill="#040744"/>
<circle cx="317" cy="394.793" r="5" fill="#040744"/>
<circle cx="317" cy="409.793" r="5" fill="#040744"/>
<circle cx="332" cy="274.793" r="5" fill="#040744"/>
<circle cx="332" cy="289.793" r="5" fill="#040744"/>
<circle cx="332" cy="304.793" r="5" fill="#040744"/>
<circle cx="332" cy="319.793" r="5" fill="#040744"/>
<circle cx="332" cy="334.793" r="5" fill="#040744"/>
<circle cx="332" cy="349.793" r="5" fill="#040744"/>
<circle cx="332" cy="364.793" r="5" fill="#040744"/>
<circle cx="332" cy="379.793" r="5" fill="#040744"/>
<circle cx="332" cy="394.793" r="5" fill="#040744"/>
<circle cx="332" cy="409.793" r="5" fill="#040744"/>
<circle cx="347" cy="274.793" r="5" fill="#040744"/>
<circle cx="347" cy="289.793" r="5" fill="#040744"/>
<circle cx="347" cy="304.793" r="5" fill="#040744"/>
<circle cx="347" cy="319.793" r="5" fill="#040744"/>
<circle cx="347" cy="334.793" r="5" fill="#040744"/>
<circle cx="347" cy="349.793" r="5" fill="#040744"/>
<circle cx="347" cy="364.793" r="5" fill="#040744"/>
<circle cx="347" cy="379.793" r="5" fill="#040744"/>
<circle cx="347" cy="394.793" r="5" fill="#040744"/>
<circle cx="347" cy="409.793" r="5" fill="#040744"/>
<circle cx="362" cy="274.793" r="5" fill="#040744"/>
<circle cx="362" cy="289.793" r="5" fill="#040744"/>
<circle cx="362" cy="304.793" r="5" fill="#040744"/>
<circle cx="362" cy="319.793" r="5" fill="#040744"/>
<circle cx="362" cy="334.793" r="5" fill="#040744"/>
<circle cx="362" cy="349.793" r="5" fill="#040744"/>
<circle cx="362" cy="364.793" r="5" fill="#040744"/>
<circle cx="362" cy="379.793" r="5" fill="#040744"/>
<circle cx="362" cy="394.793" r="5" fill="#040744"/>
<circle cx="362" cy="409.793" r="5" fill="#040744"/>
<circle cx="377" cy="274.793" r="5" fill="#040744"/>
<circle cx="377" cy="289.793" r="5" fill="#040744"/>
<circle cx="377" cy="304.793" r="5" fill="#040744"/>
<circle cx="377" cy="319.793" r="5" fill="#040744"/>
<circle cx="377" cy="334.793" r="5" fill="#040744"/>
<circle cx="377" cy="349.793" r="5" fill="#040744"/>
<circle cx="377" cy="364.793" r="5" fill="#040744"/>
<circle cx="377" cy="379.793" r="5" fill="#040744"/>
<circle cx="377" cy="394.793" r="5" fill="#040744"/>
<circle cx="377" cy="409.793" r="5" fill="#040744"/>
<defs>
<clipPath id="clip0_437_173">
<rect width="70" height="145" fill="white" transform="translate(312 119.793)"/>
</clipPath>
</defs>
</svg>
